<svg xmlns="http://www.w3.org/2000/svg" viewBox="0 0 128 128">
  <defs>
    <linearGradient id="g" x1="0" y1="0" x2="1" y2="1">
      <stop offset="0" stop-color="#766DFF"/>
      <stop offset="0.48" stop-color="#B565F4"/>
      <stop offset="1" stop-color="#FF6FC6"/>
    </linearGradient>
    <filter id="s" x="-30%" y="-30%" width="160%" height="160%"><feDropShadow dx="0" dy="8" stdDeviation="8" flood-color="#9D63EA" flood-opacity=".28"/></filter>
  </defs>
  <rect x="8" y="8" width="112" height="112" rx="31" fill="url(#g)" filter="url(#s)"/>
  <circle cx="29" cy="32" r="2" fill="#fff" opacity=".9"/>
  <circle cx="101" cy="24" r="1.8" fill="#fff" opacity=".85"/>
  <path d="M96 31l2.5 6.5L105 40l-6.5 2.5L96 49l-2.5-6.5L87 40l6.5-2.5z" fill="#fff" opacity=".95"/>
  <path d="M36 78V42h13l15 22 15-22h13v36H80V60L65 81h-2L48 60v18z" fill="#fff"/>
  <path d="M48 91c9 8 23 8 32 0" fill="none" stroke="#fff" stroke-width="5" stroke-linecap="round"/>
</svg>
